<?xml version="1.0" encoding="utf-8"?>
<!-- Generator: Adobe Illustrator 21.1.0, SVG Export Plug-In . SVG Version: 6.00 Build 0)  -->
<svg version="1.1" xmlns="http://www.w3.org/2000/svg" xmlns:xlink="http://www.w3.org/1999/xlink" x="0px" y="0px"
	 viewBox="0 0 750 210" style="enable-background:new 0 0 750 210;" xml:space="preserve">
<style type="text/css">
	.st0{opacity:0.4;}
	.st1{fill:#A27C52;}
	.st2{fill:#FFFFFF;}
	.st3{fill:#333333;}
	.st4{fill:none;stroke:#666666;stroke-width:1.6979;stroke-miterlimit:10;}
	.st5{fill:#FF7166;}
	.st6{fill:#959595;}
	.st7{fill:#C40E28;}
	.st8{fill:#4D4D4D;}
	.st9{fill:#E2E2E2;}
	.st10{fill:#8C8C8C;}
	.st11{clip-path:url(#SVGID_11_);}
	.st12{clip-path:url(#SVGID_13_);}
	.st13{clip-path:url(#SVGID_17_);}
	.st14{clip-path:url(#SVGID_28_);}
	.st15{clip-path:url(#SVGID_30_);}
	.st16{clip-path:url(#SVGID_32_);}
	.st17{clip-path:url(#SVGID_35_);}
	.st18{clip-path:url(#SVGID_37_);}
	.st19{clip-path:url(#SVGID_39_);}
	.st20{clip-path:url(#SVGID_41_);}
	.st21{clip-path:url(#SVGID_43_);}
	.st22{clip-path:url(#SVGID_46_);}
	.st23{clip-path:url(#SVGID_48_);}
	.st24{clip-path:url(#SVGID_50_);}
	.st25{clip-path:url(#SVGID_52_);}
	.st26{clip-path:url(#SVGID_54_);}
	.st27{clip-path:url(#SVGID_56_);}
</style>
<g id="图层_1">
</g>
<g id="图层_2">
</g>
<g id="功能层">
	<g>
		<g>
			<path class="st2" d="M140,71.7c-1.2,1.2-2.1,2.5-2.8,3.9c-0.7,1.5-1.4,3.6-2.2,6.2l-4.8,19.8l3.9-0.5l6.4-21.5
				c0.8-2.7,1.2-4.7,1.3-6.1c0.1-1.4-0.2-2.5-1-3.3l34.1-4.8c-1.3,1.1-2.4,2.4-3.2,3.9c-0.8,1.5-1.7,3.6-2.5,6.3l-6.4,21.5l69.1-9.7
				v12.6c-1.3-1.6-2.9-2.6-4.8-3c-1.9-0.4-4.7-0.3-8.4,0.2l-58.3,8.2l-3.3,11.3l73-10.2c-1.8,1.3-3,2.5-3.5,3.6
				c-0.5,1.1-0.8,2.4-0.8,4v24.4l-23.3,22.9l18.4,15.9c2,1.7,3.9,3.1,5.8,4.2c1.9,1.1,4.1,2.3,6.7,3.6l-36.9,5.2
				c-0.5-1.4-1.1-2.6-1.9-3.4c-0.8-0.9-1.9-2-3.4-3.2l-6-5.3l-7.2,7.1c-1.7,1.7-2.9,3.1-3.7,4.2c-0.7,1.1-1.4,2.4-1.9,4l-36.8,5.1
				c2.6-2.1,4.8-3.9,6.5-5.4c1.7-1.6,3.7-3.5,5.8-5.8l22-22l-19.6-16.5v-9.2l-14.7,49.4c-0.8,2.7-1.2,4.8-1.3,6.2
				c-0.1,1.5,0.2,2.6,1,3.4l-34.2,4.8c1.2-1.1,2.2-2.4,3.1-3.9c0.9-1.6,1.7-3.7,2.5-6.4l24.8-83.8l-29.9,4.2
				c1.3-1.1,2.3-2.3,2.9-3.8c0.6-1.5,1.4-3.6,2.2-6.3l4.6-18.4c0.7-2.7,1-4.7,0.9-6.1c-0.1-1.4-0.5-2.5-1.3-3.4L140,71.7z
				 M179.9,126.9c-0.6,0.7-1,1.4-1.2,2.3c-0.2,0.8-0.3,1.6-0.3,2.4v8.9l8.7,7.7l10.3-10.4v-16.2c0-0.7-0.3-1.2-0.8-1.7
				c-0.5-0.4-1.2-0.6-1.9-0.5l-40.4,5.6l-1.5,5.6L179.9,126.9z M218.8,79.7c0.9,3,2.1,4.8,3.7,5.6l-32.3,4.5
				c0.8-1.2,0.7-3.2-0.3-6.1l-3.9-10.5c-0.5-1.6-1-2.8-1.6-3.6c-0.5-0.8-1.2-1.4-2-2l32.1-4.5c-0.5,0.8-0.7,1.6-0.6,2.4
				c0.1,0.8,0.4,2.1,0.9,3.7L218.8,79.7z"/>
			<path class="st2" d="M241.3,117.6l9.6-1.3V70.9c-2.9,0.6-5.1,1.3-6.7,2.2c-1.6,0.9-2.9,2.1-4,3.6V64.3l51-7.1v12.3
				c-1.2-1.4-2.7-2.3-4.4-2.6c-1.7-0.3-4.2-0.3-7.3-0.1v45.4l10.5-1.5v12.5c-1.1-1.2-2.4-2.1-4-2.5c-1.6-0.4-3.7-0.5-6.4-0.4v49.8
				c3.1-0.6,5.5-1.3,7.3-2.1c1.7-0.8,3.2-2.1,4.4-3.8v12.3l-51,7.1v-12.3c1.1,1.2,2.4,2.1,4,2.5c1.6,0.4,3.8,0.5,6.7,0.3v-49.6
				c-2.6,0.6-4.6,1.2-6,2c-1.4,0.8-2.6,2-3.6,3.5V117.6z M361.5,152.5c0,4.2,1.1,6.3,3.4,6.5c2.3,0.2,5.3-1.7,9-5.6l-6.1,15.6
				l-33.8,4.7c0.8-0.8,1.3-1.7,1.6-2.7c0.2-1,0.4-2.4,0.4-4.2v-21.1l-8.5,22.3c-0.5,1.5-0.9,2.8-1.1,4c-0.3,1.2-0.1,2.1,0.5,2.8
				l-32.4,4.5c0.6-0.8,1.4-1.8,2.3-3.2c0.9-1.3,1.7-2.7,2.2-4.2l16.9-42.2l-22,3.1c0.7-0.9,1.2-1.8,1.4-2.9c0.2-1,0.4-2.4,0.4-4.1
				V61.3c0-3-0.6-5.1-1.8-6.4l78.3-11c-1.1,1.7-1.6,4-1.6,6.9v64.6c0,1.7,0.1,3,0.4,4c0.2,1,0.7,1.8,1.3,2.5l-22.7,3.2
				c0.7-0.9,1.2-1.8,1.4-2.9c0.2-1,0.4-2.4,0.4-4.1V56.8c0-1.3-0.7-1.8-2.1-1.6l-32.1,4.5c-1.4,0.2-2.1,0.9-2.1,2.2v61.3
				c0,2.8,0.3,4.8,1,6l3.4-8.4V72.9c0-3.2-0.7-5.4-1.9-6.6l30.9-4.3c-0.7,0.8-1.2,1.8-1.4,3c-0.3,1.2-0.4,2.6-0.4,4.1v49.4
				l-4.3,11.2l21.2-3c-0.7,0.9-1.2,1.8-1.5,2.8c-0.3,1-0.4,2.4-0.4,4.3V152.5z"/>
			<path class="st2" d="M379.4,167.4c3.4-2.8,6.6-5.8,9.5-9.1c2.9-3.3,6.3-7.6,9.9-12.9l61-91.7l-62.2,8.7c-3.7,0.5-6.4,1.1-8.2,1.9
				c-1.8,0.7-3.3,2.2-4.6,4.2V56.1l42.5-5.9v-5.3c0-2.6-0.2-4.6-0.6-5.9c-0.4-1.3-1.1-2.4-2.1-3.2l32.6-4.6
				c-1.1,1.1-1.8,2.3-2.2,3.8c-0.3,1.5-0.5,3.5-0.5,6.1v5.3l50.5-7.2c-1.9,1.1-3.7,2.4-5.3,4.2c-1.6,1.7-3.3,3.7-4.9,5.9
				l-69.7,103.5l56.7-7.9c5.4-0.8,10.5-2.3,15.3-4.7c4.8-2.4,9.1-6,12.9-10.7l-7.8,20.9L379.4,167.4z"/>
			<path class="st2" d="M515.6,147.9c0.8-1.7,1.3-3.3,1.6-4.7c0.3-1.4,0.6-3.7,1-6.7l4.5-96.9c-1.4,0.3-2.7,0.7-3.8,1.3
				c-1.1,0.6-2.3,1.6-3.4,3V32.6l15.1-2.1v-4.3c0-2.3-0.2-4-0.7-5.1c-0.4-1.1-1.2-2-2.2-2.7l35-4.9c-0.8,0.9-1.4,2-1.8,3.2
				c-0.4,1.2-0.6,3-0.6,5.3v4.3l15.3-2.1v11.3c-1.7-1.5-3.3-2.3-4.9-2.3c-1.5,0-3.6,0.2-6.2,0.6L546,36.4l-0.7,16.8l30.2-4.2
				c-0.8,1.3-1.3,2.4-1.4,3.4c-0.2,1-0.2,2.3-0.2,4.1v75.3c0,1.7,0,3.1,0.1,4.1c0.1,1.1,0.4,2.3,1,3.7l-27.5,3.8l-4.6-11.3
				c2.3,2,4.1,2.6,5.4,1.8c1.3-0.8,1.9-3,1.9-6.5V63.1c0-1.8-1-2.5-3-2.3l-2.4,0.3l-3.6,74.6c-0.2,2.5-0.2,4.2-0.1,5.2
				c0.1,1,0.5,2,1.2,3.1L515.6,147.9z M613,6c-1,1.1-1.8,2.4-2.5,3.9c-0.6,1.5-1.1,3.5-1.4,6.1v0.1l39.9-5.6v12.1
				c-1.1-1.7-2.5-2.7-4.3-2.8c-1.8-0.1-4.5,0-8.1,0.5l-28.9,4c-0.3,2.4-0.3,4.3-0.1,5.6c0.2,1.3,0.7,2.4,1.5,3.1l-32.9,4.6
				c1.1-1.1,1.9-2.4,2.5-3.8c0.5-1.4,1.1-3.4,1.6-6.1l1-7.9c0.4-2.6,0.5-4.6,0.3-6c-0.2-1.4-0.7-2.5-1.5-3.4L613,6z M606.8,118.6
				c0,1.8,0.2,3.2,0.7,4.3c0.5,1.1,1.2,1.7,2.1,1.8c0.9,0.1,2-0.3,3.3-1.2c1.3-0.9,2.7-2.5,4.3-4.8l-6.1,15.4l-33.2,4.6
				c1-1,1.7-2.3,2-3.7c0.3-1.4,0.5-3.4,0.5-6V53c0-2.6-0.2-4.5-0.5-5.9c-0.3-1.3-1-2.4-2-3.3l57-8c3.7-0.5,6.4-1.2,8.2-2
				c1.8-0.8,3.3-2.2,4.5-4.1v12.3l-12.6,1.8l3.1,25.2l2.7-1c1.9-0.8,3.4-1.4,4.6-2.1c1.2-0.6,2.3-1.6,3.4-3.1v10.6l-9.6,3.4
				l5.4,43.1c0.3,2.5,0.7,4.5,1.3,5.8c0.6,1.3,1.4,2.3,2.5,3.1l-30,4.2c0.8-1,1.3-2.2,1.5-3.6c0.2-1.4,0.2-3.4,0-6l-9.9-76.1
				l-0.9,0.1c-1.7,0.2-2.5,1.2-2.5,3V118.6z"/>
		</g>
	</g>
</g>
</svg>
