<?xml version="1.0" encoding="utf-8"?>
<!-- Generator: Adobe Illustrator 21.1.0, SVG Export Plug-In . SVG Version: 6.00 Build 0)  -->
<svg version="1.1" id="图层_1" xmlns="http://www.w3.org/2000/svg" xmlns:xlink="http://www.w3.org/1999/xlink" x="0px" y="0px"
	 viewBox="0 0 55 55" style="enable-background:new 0 0 55 55;" xml:space="preserve">
<style type="text/css">
	.st0{fill:#FFFFFF;}
</style>
<title>20170712发现之旅界面素材</title>
<g id="功能层">
	<g>
		<path class="st0" d="M27.5,0C12.3,0,0,12.3,0,27.5S12.3,55,27.5,55S55,42.7,55,27.5S42.7,0,27.5,0L27.5,0z M27.5,42.8
			c-2.3,0-4.2-1.9-4.2-4.2s1.9-4.2,4.2-4.2s4.2,1.9,4.2,4.2C31.7,40.9,29.8,42.8,27.5,42.8L27.5,42.8z M31.7,19.6
			c-0.2,0.7-0.5,1.8-0.9,3.2c-0.7,2-1.1,3.6-1.4,4.8s-0.4,2.3-0.5,3.5c0,0.4-0.1,0.8-0.3,1.2c-0.2,0.3-0.6,0.4-0.9,0.4
			s-0.6-0.1-0.9-0.3c-0.2-0.3-0.3-0.6-0.3-1c-0.1-1-0.2-1.6-0.2-2c-0.1-0.6-0.2-1.2-0.4-1.8c-0.4-1.3-0.8-2.8-1.3-4.3
			c-0.5-1.2-0.9-2.5-1.2-3.8c-0.2-0.7-0.3-1.5-0.2-2.2c0-1.2,0.4-2.4,1.2-3.4c0.8-1,2.1-1.6,3.4-1.6c1.2,0,2.4,0.5,3.1,1.5
			c0.9,1.1,1.3,2.5,1.2,3.9C31.9,18.3,31.8,19,31.7,19.6z"/>
	</g>
</g>
</svg>
