<svg xmlns="http://www.w3.org/2000/svg" width="27" height="27" viewBox="0 0 27 27">
  <defs>
    <style>
      .cls-1 {
        fill: #fff;
      }
    </style>
  </defs>
  <title>20170712发现之旅界面素材</title>
  <g id="功能层">
    <g>
      <path class="cls-1" d="M3.08,8.3a2.61,2.61,0,0,0-2.6,2.6v5.2a2.61,2.61,0,0,0,2.6,2.6h.78l8.32,7.8V.5L3.86,8.3Zm6.5-1.82v14L4.9,16.1H3.08V10.9H4.9Z"/>
      <path class="cls-1" d="M22.32,3.36,20.5,5.18a11.69,11.69,0,0,1,0,16.51l1.82,1.82A14.2,14.2,0,0,0,22.32,3.36Z"/>
      <path class="cls-1" d="M18.68,7,16.86,8.82a7.05,7.05,0,0,1,1.82,4.68,6.1,6.1,0,0,1-1.95,4.55l1.82,1.82a9.06,9.06,0,0,0,2.6-6.37A8.7,8.7,0,0,0,18.68,7Z"/>
      <path class="cls-1" d="M13.09,12.59a1.26,1.26,0,0,1,0,1.82l1.82,1.82a3.74,3.74,0,0,0,1.17-2.73,3.54,3.54,0,0,0-1.17-2.73Z"/>
    </g>
  </g>
</svg>
