<?xml version="1.0" encoding="utf-8"?>
<!-- Generator: Adobe Illustrator 21.1.0, SVG Export Plug-In . SVG Version: 6.00 Build 0)  -->
<svg version="1.1" xmlns="http://www.w3.org/2000/svg" xmlns:xlink="http://www.w3.org/1999/xlink" x="0px" y="0px"
	 viewBox="0 0 55 55" style="enable-background:new 0 0 55 55;" xml:space="preserve">
<style type="text/css">
	.st0{clip-path:url(#SVGID_27_);}
	.st1{fill:#FDEBD1;}
	.st2{opacity:0.5;}
	.st3{fill-rule:evenodd;clip-rule:evenodd;fill:url(#SVGID_28_);}
	.st4{fill-rule:evenodd;clip-rule:evenodd;fill:url(#SVGID_29_);}
	.st5{fill-rule:evenodd;clip-rule:evenodd;fill:url(#SVGID_30_);}
	.st6{fill:url(#SVGID_31_);}
	.st7{fill-rule:evenodd;clip-rule:evenodd;fill:url(#SVGID_32_);}
	.st8{fill:url(#SVGID_33_);}
	.st9{fill-rule:evenodd;clip-rule:evenodd;fill:url(#SVGID_34_);}
	.st10{fill:url(#SVGID_35_);}
	.st11{fill:url(#SVGID_36_);}
	.st12{fill:#808184;}
	.st13{fill:#FFFFFF;}
	.st14{opacity:0.1;fill:url(#SVGID_37_);}
	.st15{fill:#F0F1F1;}
	.st16{fill:#F1F2F2;}
	.st17{opacity:0.1;fill:#0E0E0E;}
	.st18{opacity:0.2;fill:url(#SVGID_38_);}
	.st19{opacity:0.2;fill:url(#SVGID_39_);}
	.st20{opacity:0.2;fill-rule:evenodd;clip-rule:evenodd;fill:#FFFFFF;}
	.st21{fill-rule:evenodd;clip-rule:evenodd;fill:url(#SVGID_40_);}
	.st22{fill-rule:evenodd;clip-rule:evenodd;fill:#00AEEF;}
	.st23{fill-rule:evenodd;clip-rule:evenodd;fill:url(#SVGID_41_);}
	.st24{fill-rule:evenodd;clip-rule:evenodd;fill:#FFFFFF;}
	.st25{opacity:0.5;fill-rule:evenodd;clip-rule:evenodd;fill:#0E0E0E;}
	.st26{opacity:0.4;}
	.st27{clip-path:url(#SVGID_43_);}
	.st28{fill:#CB3B27;}
	.st29{clip-path:url(#SVGID_54_);}
	.st30{fill:#3E3A39;}
	.st31{fill:none;stroke:#3E3A39;stroke-width:4.6617;stroke-miterlimit:10;}
	.st32{fill:none;stroke:#3E3A39;stroke-width:4.5698;stroke-miterlimit:10;}
	.st33{fill:#231815;}
	.st34{fill:none;stroke:#3E3A39;stroke-width:4.5758;stroke-miterlimit:10;}
	.st35{fill:none;stroke:#C40E28;stroke-width:2;stroke-miterlimit:10;}
	.st36{clip-path:url(#SVGID_56_);}
	.st37{fill:#C7161D;}
	.st38{fill:#C40E28;}
	.st39{fill:url(#SVGID_57_);}
	.st40{fill:url(#SVGID_58_);}
	.st41{fill:url(#SVGID_59_);}
	.st42{fill:url(#SVGID_60_);}
	.st43{fill:url(#SVGID_61_);}
	.st44{fill:url(#SVGID_62_);}
	.st45{fill:#C8161D;}
	.st46{fill:url(#SVGID_63_);}
	.st47{fill:url(#SVGID_64_);}
	.st48{fill:url(#SVGID_65_);}
	.st49{fill:url(#SVGID_66_);}
	.st50{fill:url(#SVGID_67_);}
	.st51{fill:url(#SVGID_68_);}
	.st52{fill:#A27C52;}
	.st53{opacity:0.6;fill:#35050A;}
	.st54{fill:#FF7166;}
	.st55{fill:#4D4D4D;}
	.st56{fill:#FFFFFF;stroke:#959595;stroke-width:2;stroke-miterlimit:10;}
	.st57{opacity:0.6;}
	.st58{fill:#959595;}
	.st59{fill:#E2E2E2;}
	.st60{opacity:0.7;fill:url(#SVGID_73_);}
	.st61{fill:url(#SVGID_75_);}
	.st62{fill:#333333;}
	.st63{fill:#FCFAFA;}
	.st64{opacity:0.7;fill:url(#SVGID_79_);}
	.st65{fill:url(#SVGID_80_);}
	.st66{opacity:0.7;fill:url(#SVGID_83_);}
	.st67{opacity:0.7;fill:url(#SVGID_85_);}
	.st68{opacity:0.7;fill:url(#SVGID_88_);}
	.st69{opacity:0.7;fill:url(#SVGID_90_);}
	.st70{clip-path:url(#SVGID_91_);}
	.st71{opacity:0.7;fill:url(#SVGID_92_);}
	.st72{opacity:0.7;fill:url(#SVGID_94_);}
	.st73{opacity:0.7;}
	.st74{opacity:0.8;}
	.st75{fill:#8C8C8C;}
	.st76{fill:none;stroke:#666666;stroke-width:1.6979;stroke-miterlimit:10;}
	.st77{opacity:0.7;fill:url(#SVGID_96_);}
	.st78{opacity:0.7;fill:url(#SVGID_98_);}
	.st79{fill:#CB3B27;stroke:#FFFFFF;stroke-width:4;stroke-miterlimit:10;}
	.st80{opacity:0.7;fill:url(#SVGID_100_);}
	.st81{clip-path:url(#SVGID_102_);}
	.st82{fill:none;stroke:#C40E28;stroke-width:4;stroke-linecap:round;stroke-linejoin:round;stroke-dasharray:8.0854,19.2028;}
	.st83{clip-path:url(#SVGID_104_);}
	.st84{fill:none;stroke:#C40E28;stroke-width:4;stroke-linecap:round;stroke-linejoin:round;stroke-dasharray:7.9816,18.9564;}
	.st85{fill:none;stroke:#FFFFFF;stroke-width:4.2615;stroke-linecap:round;stroke-linejoin:round;stroke-miterlimit:10;}
	.st86{fill:none;stroke:#FFFFFF;stroke-width:3.4092;stroke-linecap:round;stroke-linejoin:round;stroke-miterlimit:10;}
	.st87{opacity:0.7;fill:url(#SVGID_106_);}
	.st88{fill:none;stroke:#4D4D4D;stroke-width:4;stroke-linecap:round;stroke-linejoin:round;stroke-miterlimit:10;}
	.st89{fill:none;stroke:#4D4D4D;stroke-width:3;stroke-linecap:round;stroke-linejoin:round;stroke-miterlimit:10;}
	.st90{fill:#8E7C52;}
	.st91{fill:#B00E28;}
	.st92{fill:#818181;}
	.st93{fill:#CECECE;}
</style>
<g id="图层_1">
</g>
<g id="图层_2">
</g>
<g id="功能层">
	<path class="st13" d="M27.5,0C12.3,0,0,12.3,0,27.5S12.3,55,27.5,55S55,42.7,55,27.5S42.7,0,27.5,0z M42.5,40
		c-5.5,6-14.7-0.2-19.5-4c-5.4-4.2-11.3-10.7-10.2-18.1c0.3-2.3,1.8-5.6,4.2-6.5c0.2-0.1,0.4-0.1,0.6,0c0.9,0.1,1.8,0.9,2.4,1.3
		c1,0.7,1.9,1.6,2.9,2.5c0.5,0.5,1,1,1.4,1.6c1,1.6,0.3,2.7-0.6,4.1c-0.4,0.6-1.9,2.3-1.9,2.3c-0.2,0.2,1.6,2.9,1.8,3.2
		c0.7,1,1.6,2,2.6,2.9c1,0.9,2,1.7,3.2,2.5c0.3,0.2,3.1,2,3.3,1.8l1.3-1.3c0.7-0.7,1.5-1.9,2.6-2c1.3,0,3.4,2,4.4,2.7
		c1.3,1,3,2.3,3.1,4.1C44,38.1,43.2,39.2,42.5,40z"/>
</g>
</svg>
