<?xml version="1.0" encoding="utf-8"?>
<!-- Generator: Adobe Illustrator 21.1.0, SVG Export Plug-In . SVG Version: 6.00 Build 0)  -->
<svg version="1.1" id="图层_1" xmlns="http://www.w3.org/2000/svg" xmlns:xlink="http://www.w3.org/1999/xlink" x="0px" y="0px"
	 viewBox="0 0 55 55" style="enable-background:new 0 0 55 55;" xml:space="preserve">
<style type="text/css">
	.st0{fill:#FFFFFF;}
</style>
<g id="图层_1_1_">
</g>
<g id="图层_2">
</g>
<g>
	<g>
		<g>
			<path class="st0" d="M5.1,21.1c-1.2,0-2.1-1-2.1-2.1v-4.6C3,8,8.2,2.8,14.6,2.8H20c1.2,0,2.1,1,2.1,2.1s-1,2.1-2.1,2.1h-5.4
				c-4,0-7.3,3.3-7.3,7.3v4.6C7.3,20.1,6.3,21.1,5.1,21.1z"/>
		</g>
		<g>
			<path class="st0" d="M49.9,21.1c-1.2,0-2.1-1-2.1-2.1v-4.6c0-4-3.3-7.3-7.3-7.3H35c-1.2,0-2.1-1-2.1-2.1s1-2.1,2.1-2.1h5.4
				C46.8,2.8,52,8,52,14.3v4.6C52,20.1,51,21.1,49.9,21.1z"/>
		</g>
		<g>
			<path class="st0" d="M20,53.4h-5.4C7.9,53.4,3,48.9,3,42.7v-5.4c0-1.2,1-2.1,2.1-2.1s2.1,1,2.1,2.1v5.4c0,4.4,3.8,6.4,7.3,6.4H20
				c1.2,0,2.1,1,2.1,2.1C22.1,52.5,21.2,53.4,20,53.4z"/>
		</g>
		<g>
			<path class="st0" d="M40.4,53.4H35c-1.2,0-2.1-1-2.1-2.1c0-1.2,1-2.1,2.1-2.1h5.4c3.5,0,7.3-2,7.3-6.4v-5.4c0-1.2,1-2.1,2.1-2.1
				s2.1,1,2.1,2.1v5.4C52,48.9,47.1,53.4,40.4,53.4z"/>
		</g>
	</g>
	<g>
		<path class="st0" d="M53.3,29.5H1.7c-0.9,0-1.7-0.8-1.7-1.7c0-0.9,0.8-1.7,1.7-1.7h51.6c0.9,0,1.7,0.8,1.7,1.7
			C55,28.8,54.2,29.5,53.3,29.5z"/>
	</g>
</g>
</svg>
